<svg width="1000" height="1000" viewBox="0 0 1000 1000" xmlns="http://www.w3.org/2000/svg"><defs/><path fill="#7dbf50" transform="matrix(0.2759831491267432 0 0 0.27598314912674327 44.237590083884065 50.39157282077868)" d="M 1588.2639046468 1306.0649806301 C 1584.3639046468 1312.7649806301 1575.7639046468 1315.0649806301 1569.0639046468 1311.2649806301 L 1483.2639046468 1261.6649806301 L 1483.2639046468 1285.1649806301 C 1483.2639046468 1296.4649806301 1491.2639046468 1310.2649806301 1501.0639046468 1315.9649806301 L 1633.6639046468 1392.5649806301 C 1643.4639046468 1398.1649806301 1659.4639046468 1398.1649806301 1669.1639046468 1392.5649806301 L 1715.6639046468 1365.6649806301 L 1588.3639046468 1292.1649806301 C 1590.6639046468 1296.3649806301 1590.8639046468 1301.6649806301 1588.2639046468 1306.0649806301 Z"/><path fill="#7dbf50" transform="matrix(0.2759831491267432 0 0 0.27598314912674327 44.237590083884065 50.39157282077868)" d="M 1677.0639046468 1273.2649806301 C 1673.1639046468 1279.9649806301 1664.5639046468 1282.2649806301 1657.8639046468 1278.4649806301 L 1483.1639046468 1177.5649806301 L 1483.1639046468 1214.5649806301 L 1730.1639046468 1357.1649806301 L 1788.3639046468 1323.5649806301 L 1677.0639046468 1259.2649806301 C 1679.4639046468 1263.5649806301 1679.6639046468 1268.8649806301 1677.0639046468 1273.2649806301 Z"/><path fill="#bddc3f" transform="matrix(0.2759831491267432 0 0 0.27598314912674327 44.237590083884065 50.39157282077868)" d="M 1767.0639046468 1241.1649806301 C 1763.1639046468 1247.8649806301 1754.5639046468 1250.1649806301 1747.8639046468 1246.3649806301 L 1498.8639046468 1102.5649806301 C 1490.4639046468 1108.5649806301 1483.8639046468 1120.3649806301 1483.2639046468 1130.5649806301 L 1802.9639046468 1315.1649806301 C 1812.1639046468 1309.1649806301 1819.5639046468 1295.9649806301 1819.5639046468 1285.1649806301 L 1819.5639046468 1257.4649806301 L 1767.1639046468 1227.1649806301 C 1769.4639046468 1231.4649806301 1769.6639046468 1236.6649806301 1767.0639046468 1241.1649806301 Z"/><path fill="#bddc3f" transform="matrix(0.2759831491267432 0 0 0.27598314912674327 44.237590083884065 50.39157282077868)" d="M 1740.9639046468 1142.0649806301 C 1737.0639046468 1148.7649806301 1728.4639046468 1151.0649806301 1721.7639046468 1147.2649806301 L 1571.5639046468 1060.5649806301 L 1539.5639046468 1079.0649806301 L 1819.6639046468 1240.7649806301 L 1819.6639046468 1173.5649806301 L 1741.1639046468 1128.2649806301 C 1743.3639046468 1132.3649806301 1743.5639046468 1137.5649806301 1740.9639046468 1142.0649806301 Z"/><path fill="#bddc3f" transform="matrix(0.2759831491267432 0 0 0.27598314912674327 44.237590083884065 50.39157282077868)" d="M 1819.5639046468 1131.9649806301 C 1819.5639046468 1120.6649806301 1811.5639046468 1106.8649806301 1801.7639046468 1101.1649806301 L 1669.1639046468 1024.6649806301 C 1659.3639046468 1019.0649806301 1643.3639046468 1019.0649806301 1633.6639046468 1024.6649806301 L 1612.2639046468 1036.9649806301 L 1819.5639046468 1156.6649806301 L 1819.5639046468 1131.9649806301 Z"/><path id="text" fill="#39844f" transform="matrix(0.7470969945355191 0 0 0.7470969945355193 -5.952868852459017 323.13483606557384)" d="M 253.33714285714 287.03254857143 C 257.72114285714 289.01654857143 261.09714285714 291.83254857143 263.46514285714 295.48054857143 C 265.83314285714 299.12854857143 267.01714285714 303.44854857143 267.01714285714 308.44054857143 C 267.01714285714 313.36854857143 265.83314285714 317.67254857143 263.46514285714 321.35254857143 C 261.09714285714 325.03254857143 257.72114285714 327.84854857143 253.33714285714 329.80054857143 C 248.95314285714 331.75254857143 243.78514285714 332.72854857143 237.83314285714 332.72854857143 L 224.29714285714 332.72854857143 L 224.29714285714 351.25654857143 L 208.74514285714 351.25654857143 L 208.74514285714 284.05654857143 L 237.83314285714 284.05654857143 C 243.78514285714 284.05654857143 248.95314285714 285.04854857143 253.33714285714 287.03254857143 Z M 247.62514285714 317.03254857143 C 250.05714285714 315.01654857143 251.27314285714 312.15254857143 251.27314285714 308.44054857143 C 251.27314285714 304.66454857143 250.05714285714 301.76854857143 247.62514285714 299.75254857143 C 245.19314285714 297.73654857143 241.64114285714 296.72854857143 236.96914285714 296.72854857143 L 224.29714285714 296.72854857143 L 224.29714285714 320.05654857143 L 236.96914285714 320.05654857143 C 241.64114285714 320.05654857143 245.19314285714 319.04854857143 247.62514285714 317.03254857143 Z M 278.05714285714 284.05654857143 L 293.60914285714 284.05654857143 L 293.60914285714 338.58454857143 L 327.30514285714 338.58454857143 L 327.30514285714 351.25654857143 L 278.05714285714 351.25654857143 L 278.05714285714 284.05654857143 Z M 380.87314285714 336.85654857143 L 349.67314285714 336.85654857143 L 343.72114285714 351.25654857143 L 327.78514285714 351.25654857143 L 357.73714285714 284.05654857143 L 373.09714285714 284.05654857143 L 403.14514285714 351.25654857143 L 386.82514285714 351.25654857143 L 380.87314285714 336.85654857143 Z M 375.97714285714 325.04854857143 L 365.32114285714 299.32054857143 L 354.66514285714 325.04854857143 L 375.97714285714 325.04854857143 Z M 471.78514285714 284.05654857143 L 471.78514285714 351.25654857143 L 459.01714285714 351.25654857143 L 425.51314285714 310.45654857143 L 425.51314285714 351.25654857143 L 410.15314285714 351.25654857143 L 410.15314285714 284.05654857143 L 423.01714285714 284.05654857143 L 456.42514285714 324.85654857143 L 456.42514285714 284.05654857143 L 471.78514285714 284.05654857143 Z M 549.35314285714 284.05654857143 L 549.35314285714 351.25654857143 L 536.58514285714 351.25654857143 L 503.08114285714 310.45654857143 L 503.08114285714 351.25654857143 L 487.72114285714 351.25654857143 L 487.72114285714 284.05654857143 L 500.58514285714 284.05654857143 L 533.99314285714 324.85654857143 L 533.99314285714 284.05654857143 L 549.35314285714 284.05654857143 Z M 565.28914285714 284.05654857143 L 580.84114285714 284.05654857143 L 580.84114285714 351.25654857143 L 565.28914285714 351.25654857143 L 565.28914285714 284.05654857143 Z M 658.40914285714 284.05654857143 L 658.40914285714 351.25654857143 L 645.64114285714 351.25654857143 L 612.13714285714 310.45654857143 L 612.13714285714 351.25654857143 L 596.77714285714 351.25654857143 L 596.77714285714 284.05654857143 L 609.64114285714 284.05654857143 L 643.04914285714 324.85654857143 L 643.04914285714 284.05654857143 L 658.40914285714 284.05654857143 Z M 719.75314285714 316.60054857143 L 733.96114285714 316.60054857143 L 733.96114285714 343.86454857143 C 730.31314285714 346.61654857143 726.08914285714 348.72854857143 721.28914285714 350.20054857143 C 716.48914285714 351.67254857143 711.65714285714 352.40854857143 706.79314285714 352.40854857143 C 699.81714285714 352.40854857143 693.54514285714 350.92054857143 687.97714285714 347.94454857143 C 682.40914285714 344.96854857143 678.04114285714 340.84054857143 674.87314285714 335.56054857143 C 671.70514285714 330.28054857143 670.12114285714 324.31254857143 670.12114285714 317.65654857143 C 670.12114285714 311.00054857143 671.70514285714 305.03254857143 674.87314285714 299.75254857143 C 678.04114285714 294.47254857143 682.44114285714 290.34454857143 688.07314285714 287.36854857143 C 693.70514285714 284.39254857143 700.04114285714 282.90454857143 707.08114285714 282.90454857143 C 712.96914285714 282.90454857143 718.31314285714 283.89654857143 723.11314285714 285.88054857143 C 727.91314285714 287.86454857143 731.94514285714 290.74454857143 735.20914285714 294.52054857143 L 725.22514285714 303.73654857143 C 720.42514285714 298.68054857143 714.63314285714 296.15254857143 707.84914285714 296.15254857143 C 703.56114285714 296.15254857143 699.75314285714 297.04854857143 696.42514285714 298.84054857143 C 693.09714285714 300.63254857143 690.50514285714 303.16054857143 688.64914285714 306.42454857143 C 686.79314285714 309.68854857143 685.86514285714 313.43254857143 685.86514285714 317.65654857143 C 685.86514285714 321.81654857143 686.79314285714 325.52854857143 688.64914285714 328.79254857143 C 690.50514285714 332.05654857143 693.08114285714 334.60054857143 696.37714285714 336.42454857143 C 699.67314285714 338.24854857143 703.43314285714 339.16054857143 707.65714285714 339.16054857143 C 712.13714285714 339.16054857143 716.16914285714 338.20054857143 719.75314285714 336.28054857143 L 719.75314285714 316.60054857143 Z M 833.89714285714 322.40854857143 C 836.07314285714 325.25654857143 837.16114285714 328.76054857143 837.16114285714 332.92054857143 C 837.16114285714 338.80854857143 834.87314285714 343.33654857143 830.29714285714 346.50454857143 C 825.72114285714 349.67254857143 819.04914285714 351.25654857143 810.28114285714 351.25654857143 L 775.52914285714 351.25654857143 L 775.52914285714 284.05654857143 L 808.36114285714 284.05654857143 C 816.55314285714 284.05654857143 822.84114285714 285.62454857143 827.22514285714 288.76054857143 C 831.60914285714 291.89654857143 833.80114285714 296.15254857143 833.80114285714 301.52854857143 C 833.80114285714 304.79254857143 833.01714285714 307.70454857143 831.44914285714 310.26454857143 C 829.88114285714 312.82454857143 827.68914285714 314.84054857143 824.87314285714 316.31254857143 C 828.71314285714 317.52854857143 831.72114285714 319.56054857143 833.89714285714 322.40854857143 Z M 790.98514285714 295.76854857143 L 790.98514285714 311.60854857143 L 806.44114285714 311.60854857143 C 810.28114285714 311.60854857143 813.19314285714 310.93654857143 815.17714285714 309.59254857143 C 817.16114285714 308.24854857143 818.15314285714 306.26454857143 818.15314285714 303.64054857143 C 818.15314285714 301.01654857143 817.16114285714 299.04854857143 815.17714285714 297.73654857143 C 813.19314285714 296.42454857143 810.28114285714 295.76854857143 806.44114285714 295.76854857143 L 790.98514285714 295.76854857143 Z M 818.39314285714 337.52854857143 C 820.47314285714 336.18454857143 821.51314285714 334.10454857143 821.51314285714 331.28854857143 C 821.51314285714 325.72054857143 817.38514285714 322.93654857143 809.12914285714 322.93654857143 L 790.98514285714 322.93654857143 L 790.98514285714 339.54454857143 L 809.12914285714 339.54454857143 C 813.22514285714 339.54454857143 816.31314285714 338.87254857143 818.39314285714 337.52854857143 Z M 879.78514285714 327.44854857143 L 879.78514285714 351.25654857143 L 864.23314285714 351.25654857143 L 864.23314285714 327.25654857143 L 838.21714285714 284.05654857143 L 854.72914285714 284.05654857143 L 872.68114285714 313.91254857143 L 890.63314285714 284.05654857143 L 905.89714285714 284.05654857143 L 879.78514285714 327.44854857143 Z M 939.59314285714 284.05654857143 L 970.12114285714 284.05654857143 C 977.41714285714 284.05654857143 983.86514285714 285.44854857143 989.46514285714 288.23254857143 C 995.06514285714 291.01654857143 999.41714285714 294.93654857143 1002.52114285714 299.99254857143 C 1005.62514285714 305.04854857143 1007.17714285714 310.93654857143 1007.17714285714 317.65654857143 C 1007.17714285714 324.37654857143 1005.62514285714 330.26454857143 1002.52114285714 335.32054857143 C 999.41714285714 340.37654857143 995.06514285714 344.29654857143 989.46514285714 347.08054857143 C 983.86514285714 349.86454857143 977.41714285714 351.25654857143 970.12114285714 351.25654857143 L 939.59314285714 351.25654857143 L 939.59314285714 284.05654857143 Z M 969.35314285714 338.48854857143 C 976.07314285714 338.48854857143 981.43314285714 336.61654857143 985.43314285714 332.87254857143 C 989.43314285714 329.12854857143 991.43314285714 324.05654857143 991.43314285714 317.65654857143 C 991.43314285714 311.25654857143 989.43314285714 306.18454857143 985.43314285714 302.44054857143 C 981.43314285714 298.69654857143 976.07314285714 296.82454857143 969.35314285714 296.82454857143 L 955.14514285714 296.82454857143 L 955.14514285714 338.48854857143 L 969.35314285714 338.48854857143 Z M 1062.18514285714 336.85654857143 L 1030.98514285714 336.85654857143 L 1025.03314285714 351.25654857143 L 1009.09714285714 351.25654857143 L 1039.04914285714 284.05654857143 L 1054.40914285714 284.05654857143 L 1084.45714285714 351.25654857143 L 1068.13714285714 351.25654857143 L 1062.18514285714 336.85654857143 Z M 1057.28914285714 325.04854857143 L 1046.63314285714 299.32054857143 L 1035.97714285714 325.04854857143 L 1057.28914285714 325.04854857143 Z M 1119.59314285714 327.44854857143 L 1119.59314285714 351.25654857143 L 1104.04114285714 351.25654857143 L 1104.04114285714 327.25654857143 L 1078.02514285714 284.05654857143 L 1094.53714285714 284.05654857143 L 1112.48914285714 313.91254857143 L 1130.44114285714 284.05654857143 L 1145.70514285714 284.05654857143 L 1119.59314285714 327.44854857143 Z"/><path id="text" fill="#7fba3c" transform="matrix(0.37354849726775957 0 0 0.3735484972677596 -0.14344262295081966 398.4183060109291)" d="M 977.89028571429 641.45709714286 L 954.27428571429 641.45709714286 L 954.27428571429 635.31309714286 L 1008.61028571429 635.31309714286 L 1008.61028571429 641.45709714286 L 984.99428571429 641.45709714286 L 984.99428571429 702.51309714286 L 977.89028571429 702.51309714286 L 977.89028571429 641.45709714286 Z M 1053.34628571429 656.57709714286 C 1056.86628571429 659.87309714286 1058.62628571429 664.75309714286 1058.62628571429 671.21709714286 L 1058.62628571429 702.51309714286 L 1052.09828571429 702.51309714286 L 1052.09828571429 694.64109714286 C 1050.56228571429 697.26509714286 1048.30628571429 699.31309714286 1045.33028571429 700.78509714286 C 1042.35428571429 702.25709714286 1038.81828571429 702.99309714286 1034.72228571429 702.99309714286 C 1029.09028571429 702.99309714286 1024.61028571429 701.64909714286 1021.28228571429 698.96109714286 C 1017.95428571429 696.27309714286 1016.29028571429 692.72109714286 1016.29028571429 688.30509714286 C 1016.29028571429 684.01709714286 1017.84228571429 680.56109714286 1020.94628571429 677.93709714286 C 1024.05028571429 675.31309714286 1028.99428571429 674.00109714286 1035.77828571429 674.00109714286 L 1051.81028571429 674.00109714286 L 1051.81028571429 670.92909714286 C 1051.81028571429 666.57709714286 1050.59428571429 663.26509714286 1048.16228571429 660.99309714286 C 1045.73028571429 658.72109714286 1042.17828571429 657.58509714286 1037.50628571429 657.58509714286 C 1034.30628571429 657.58509714286 1031.23428571429 658.11309714286 1028.29028571429 659.16909714286 C 1025.34628571429 660.22509714286 1022.81828571429 661.68109714286 1020.70628571429 663.53709714286 L 1017.63428571429 658.44909714286 C 1020.19428571429 656.27309714286 1023.26628571429 654.59309714286 1026.85028571429 653.40909714286 C 1030.43428571429 652.22509714286 1034.21028571429 651.63309714286 1038.17828571429 651.63309714286 C 1044.77028571429 651.63309714286 1049.82628571429 653.28109714286 1053.34628571429 656.57709714286 Z M 1045.66628571429 694.97709714286 C 1048.41828571429 693.21709714286 1050.46628571429 690.67309714286 1051.81028571429 687.34509714286 L 1051.81028571429 679.08909714286 L 1035.97028571429 679.08909714286 C 1027.33028571429 679.08909714286 1023.01028571429 682.09709714286 1023.01028571429 688.11309714286 C 1023.01028571429 691.05709714286 1024.13028571429 693.37709714286 1026.37028571429 695.07309714286 C 1028.61028571429 696.76909714286 1031.74628571429 697.61709714286 1035.77828571429 697.61709714286 C 1039.61828571429 697.61709714286 1042.91428571429 696.73709714286 1045.66628571429 694.97709714286 Z M 1100.67428571429 677.16909714286 L 1088.77028571429 688.11309714286 L 1088.77028571429 702.51309714286 L 1081.95428571429 702.51309714286 L 1081.95428571429 631.28109714286 L 1088.77028571429 631.28109714286 L 1088.77028571429 679.56909714286 L 1118.91428571429 652.01709714286 L 1127.36228571429 652.01709714286 L 1105.76228571429 672.65709714286 L 1129.37828571429 702.51309714286 L 1121.02628571429 702.51309714286 L 1100.67428571429 677.16909714286 Z M 1186.40228571429 679.37709714286 L 1144.16228571429 679.37709714286 C 1144.54628571429 684.62509714286 1146.56228571429 688.86509714286 1150.21028571429 692.09709714286 C 1153.85828571429 695.32909714286 1158.46628571429 696.94509714286 1164.03428571429 696.94509714286 C 1167.17028571429 696.94509714286 1170.05028571429 696.38509714286 1172.67428571429 695.26509714286 C 1175.29828571429 694.14509714286 1177.57028571429 692.49709714286 1179.49028571429 690.32109714286 L 1183.33028571429 694.73709714286 C 1181.09028571429 697.42509714286 1178.29028571429 699.47309714286 1174.93028571429 700.88109714286 C 1171.57028571429 702.28909714286 1167.87428571429 702.99309714286 1163.84228571429 702.99309714286 C 1158.65828571429 702.99309714286 1154.06628571429 701.88909714286 1150.06628571429 699.68109714286 C 1146.06628571429 697.47309714286 1142.94628571429 694.41709714286 1140.70628571429 690.51309714286 C 1138.46628571429 686.60909714286 1137.34628571429 682.19309714286 1137.34628571429 677.26509714286 C 1137.34628571429 672.33709714286 1138.41828571429 667.92109714286 1140.56228571429 664.01709714286 C 1142.70628571429 660.11309714286 1145.65028571429 657.07309714286 1149.39428571429 654.89709714286 C 1153.13828571429 652.72109714286 1157.34628571429 651.63309714286 1162.01828571429 651.63309714286 C 1166.69028571429 651.63309714286 1170.88228571429 652.72109714286 1174.59428571429 654.89709714286 C 1178.30628571429 657.07309714286 1181.21828571429 660.09709714286 1183.33028571429 663.96909714286 C 1185.44228571429 667.84109714286 1186.49828571429 672.27309714286 1186.49828571429 677.26509714286 L 1186.40228571429 679.37709714286 Z M 1149.77828571429 662.14509714286 C 1146.48228571429 665.24909714286 1144.61028571429 669.29709714286 1144.16228571429 674.28909714286 L 1179.97028571429 674.28909714286 C 1179.52228571429 669.29709714286 1177.65028571429 665.24909714286 1174.35428571429 662.14509714286 C 1171.05828571429 659.04109714286 1166.94628571429 657.48909714286 1162.01828571429 657.48909714286 C 1157.15428571429 657.48909714286 1153.07428571429 659.04109714286 1149.77828571429 662.14509714286 Z M 1277.60228571429 652.01709714286 L 1252.35428571429 708.56109714286 C 1250.30628571429 713.29709714286 1247.93828571429 716.65709714286 1245.25028571429 718.64109714286 C 1242.56228571429 720.62509714286 1239.33028571429 721.61709714286 1235.55428571429 721.61709714286 C 1233.12228571429 721.61709714286 1230.85028571429 721.23309714286 1228.73828571429 720.46509714286 C 1226.62628571429 719.69709714286 1224.80228571429 718.54509714286 1223.26628571429 717.00909714286 L 1226.43428571429 711.92109714286 C 1228.99428571429 714.48109714286 1232.06628571429 715.76109714286 1235.65028571429 715.76109714286 C 1237.95428571429 715.76109714286 1239.92228571429 715.12109714286 1241.55428571429 713.84109714286 C 1243.18628571429 712.56109714286 1244.70628571429 710.38509714286 1246.11428571429 707.31309714286 L 1248.32228571429 702.41709714286 L 1225.76228571429 652.01709714286 L 1232.86628571429 652.01709714286 L 1251.87428571429 694.92909714286 L 1270.88228571429 652.01709714286 L 1277.60228571429 652.01709714286 Z M 1298.05028571429 699.68109714286 C 1294.14628571429 697.47309714286 1291.07428571429 694.41709714286 1288.83428571429 690.51309714286 C 1286.59428571429 686.60909714286 1285.47428571429 682.19309714286 1285.47428571429 677.26509714286 C 1285.47428571429 672.33709714286 1286.59428571429 667.92109714286 1288.83428571429 664.01709714286 C 1291.07428571429 660.11309714286 1294.14628571429 657.07309714286 1298.05028571429 654.89709714286 C 1301.95428571429 652.72109714286 1306.33828571429 651.63309714286 1311.20228571429 651.63309714286 C 1316.06628571429 651.63309714286 1320.45028571429 652.72109714286 1324.35428571429 654.89709714286 C 1328.25828571429 657.07309714286 1331.31428571429 660.11309714286 1333.52228571429 664.01709714286 C 1335.73028571429 667.92109714286 1336.83428571429 672.33709714286 1336.83428571429 677.26509714286 C 1336.83428571429 682.19309714286 1335.73028571429 686.60909714286 1333.52228571429 690.51309714286 C 1331.31428571429 694.41709714286 1328.25828571429 697.47309714286 1324.35428571429 699.68109714286 C 1320.45028571429 701.88909714286 1316.06628571429 702.99309714286 1311.20228571429 702.99309714286 C 1306.33828571429 702.99309714286 1301.95428571429 701.88909714286 1298.05028571429 699.68109714286 Z M 1320.85028571429 694.49709714286 C 1323.69828571429 692.86509714286 1325.92228571429 690.54509714286 1327.52228571429 687.53709714286 C 1329.12228571429 684.52909714286 1329.92228571429 681.10509714286 1329.92228571429 677.26509714286 C 1329.92228571429 673.42509714286 1329.12228571429 670.00109714286 1327.52228571429 666.99309714286 C 1325.92228571429 663.98509714286 1323.69828571429 661.66509714286 1320.85028571429 660.03309714286 C 1318.00228571429 658.40109714286 1314.78628571429 657.58509714286 1311.20228571429 657.58509714286 C 1307.61828571429 657.58509714286 1304.40228571429 658.40109714286 1301.55428571429 660.03309714286 C 1298.70628571429 661.66509714286 1296.46628571429 663.98509714286 1294.83428571429 666.99309714286 C 1293.20228571429 670.00109714286 1292.38628571429 673.42509714286 1292.38628571429 677.26509714286 C 1292.38628571429 681.10509714286 1293.20228571429 684.52909714286 1294.83428571429 687.53709714286 C 1296.46628571429 690.54509714286 1298.70628571429 692.86509714286 1301.55428571429 694.49709714286 C 1304.40228571429 696.12909714286 1307.61828571429 696.94509714286 1311.20228571429 696.94509714286 C 1314.78628571429 696.94509714286 1318.00228571429 696.12909714286 1320.85028571429 694.49709714286 Z M 1401.05828571429 652.01709714286 L 1401.05828571429 702.51309714286 L 1394.53028571429 702.51309714286 L 1394.53028571429 693.29709714286 C 1392.73828571429 696.36909714286 1390.27428571429 698.75309714286 1387.13828571429 700.44909714286 C 1384.00228571429 702.14509714286 1380.41828571429 702.99309714286 1376.38628571429 702.99309714286 C 1369.79428571429 702.99309714286 1364.59428571429 701.15309714286 1360.78628571429 697.47309714286 C 1356.97828571429 693.79309714286 1355.07428571429 688.40109714286 1355.07428571429 681.29709714286 L 1355.07428571429 652.01709714286 L 1361.89028571429 652.01709714286 L 1361.89028571429 680.62509714286 C 1361.89028571429 685.93709714286 1363.20228571429 689.96909714286 1365.82628571429 692.72109714286 C 1368.45028571429 695.47309714286 1372.19428571429 696.84909714286 1377.05828571429 696.84909714286 C 1382.37028571429 696.84909714286 1386.56228571429 695.23309714286 1389.63428571429 692.00109714286 C 1392.70628571429 688.76909714286 1394.24228571429 684.27309714286 1394.24228571429 678.51309714286 L 1394.24228571429 652.01709714286 L 1401.05828571429 652.01709714286 Z M 1438.64228571429 654.22509714286 C 1441.81028571429 652.49709714286 1445.73028571429 651.63309714286 1450.40228571429 651.63309714286 L 1450.40228571429 658.25709714286 L 1448.77028571429 658.16109714286 C 1443.45828571429 658.16109714286 1439.29828571429 659.79309714286 1436.29028571429 663.05709714286 C 1433.28228571429 666.32109714286 1431.77828571429 670.89709714286 1431.77828571429 676.78509714286 L 1431.77828571429 702.51309714286 L 1424.96228571429 702.51309714286 L 1424.96228571429 652.01709714286 L 1431.49028571429 652.01709714286 L 1431.49028571429 661.90509714286 C 1433.09028571429 658.51309714286 1435.47428571429 655.95309714286 1438.64228571429 654.22509714286 Z M 1524.80228571429 699.44109714286 C 1523.52228571429 700.59309714286 1521.93828571429 701.47309714286 1520.05028571429 702.08109714286 C 1518.16228571429 702.68909714286 1516.19428571429 702.99309714286 1514.14628571429 702.99309714286 C 1509.41028571429 702.99309714286 1505.76228571429 701.71309714286 1503.20228571429 699.15309714286 C 1500.64228571429 696.59309714286 1499.36228571429 692.97709714286 1499.36228571429 688.30509714286 L 1499.36228571429 657.77709714286 L 1490.33828571429 657.77709714286 L 1490.33828571429 652.01709714286 L 1499.36228571429 652.01709714286 L 1499.36228571429 640.97709714286 L 1506.17828571429 640.97709714286 L 1506.17828571429 652.01709714286 L 1521.53828571429 652.01709714286 L 1521.53828571429 657.77709714286 L 1506.17828571429 657.77709714286 L 1506.17828571429 687.92109714286 C 1506.17828571429 690.92909714286 1506.93028571429 693.21709714286 1508.43428571429 694.78509714286 C 1509.93828571429 696.35309714286 1512.09828571429 697.13709714286 1514.91428571429 697.13709714286 C 1516.32228571429 697.13709714286 1517.68228571429 696.91309714286 1518.99428571429 696.46509714286 C 1520.30628571429 696.01709714286 1521.44228571429 695.37709714286 1522.40228571429 694.54509714286 L 1524.80228571429 699.44109714286 Z M 1541.98628571429 652.01709714286 L 1548.80228571429 652.01709714286 L 1548.80228571429 702.51309714286 L 1541.98628571429 702.51309714286 L 1541.98628571429 652.01709714286 Z M 1541.89028571429 639.53709714286 C 1540.93028571429 638.57709714286 1540.45028571429 637.42509714286 1540.45028571429 636.08109714286 C 1540.45028571429 634.80109714286 1540.93028571429 633.68109714286 1541.89028571429 632.72109714286 C 1542.85028571429 631.76109714286 1544.03428571429 631.28109714286 1545.44228571429 631.28109714286 C 1546.85028571429 631.28109714286 1548.03428571429 631.74509714286 1548.99428571429 632.67309714286 C 1549.95428571429 633.60109714286 1550.43428571429 634.70509714286 1550.43428571429 635.98509714286 C 1550.43428571429 637.39309714286 1549.95428571429 638.57709714286 1548.99428571429 639.53709714286 C 1548.03428571429 640.49709714286 1546.85028571429 640.97709714286 1545.44228571429 640.97709714286 C 1544.03428571429 640.97709714286 1542.85028571429 640.49709714286 1541.89028571429 639.53709714286 Z M 1650.51428571429 657.10509714286 C 1654.13028571429 660.75309714286 1655.93828571429 666.12909714286 1655.93828571429 673.23309714286 L 1655.93828571429 702.51309714286 L 1649.12228571429 702.51309714286 L 1649.12228571429 673.90509714286 C 1649.12228571429 668.65709714286 1647.85828571429 664.65709714286 1645.33028571429 661.90509714286 C 1642.80228571429 659.15309714286 1639.23428571429 657.77709714286 1634.62628571429 657.77709714286 C 1629.37828571429 657.77709714286 1625.25028571429 659.39309714286 1622.24228571429 662.62509714286 C 1619.23428571429 665.85709714286 1617.73028571429 670.32109714286 1617.73028571429 676.01709714286 L 1617.73028571429 702.51309714286 L 1610.91428571429 702.51309714286 L 1610.91428571429 673.90509714286 C 1610.91428571429 668.65709714286 1609.65028571429 664.65709714286 1607.12228571429 661.90509714286 C 1604.59428571429 659.15309714286 1600.99428571429 657.77709714286 1596.32228571429 657.77709714286 C 1591.13828571429 657.77709714286 1587.02628571429 659.39309714286 1583.98628571429 662.62509714286 C 1580.94628571429 665.85709714286 1579.42628571429 670.32109714286 1579.42628571429 676.01709714286 L 1579.42628571429 702.51309714286 L 1572.61028571429 702.51309714286 L 1572.61028571429 652.01709714286 L 1579.13828571429 652.01709714286 L 1579.13828571429 661.23309714286 C 1580.93028571429 658.16109714286 1583.42628571429 655.79309714286 1586.62628571429 654.12909714286 C 1589.82628571429 652.46509714286 1593.50628571429 651.63309714286 1597.66628571429 651.63309714286 C 1601.89028571429 651.63309714286 1605.55428571429 652.52909714286 1608.65828571429 654.32109714286 C 1611.76228571429 656.11309714286 1614.08228571429 658.76909714286 1615.61828571429 662.28909714286 C 1617.47428571429 658.96109714286 1620.14628571429 656.35309714286 1623.63428571429 654.46509714286 C 1627.12228571429 652.57709714286 1631.10628571429 651.63309714286 1635.58628571429 651.63309714286 C 1641.92228571429 651.63309714286 1646.89828571429 653.45709714286 1650.51428571429 657.10509714286 Z M 1723.42628571429 679.37709714286 L 1681.18628571429 679.37709714286 C 1681.57028571429 684.62509714286 1683.58628571429 688.86509714286 1687.23428571429 692.09709714286 C 1690.88228571429 695.32909714286 1695.49028571429 696.94509714286 1701.05828571429 696.94509714286 C 1704.19428571429 696.94509714286 1707.07428571429 696.38509714286 1709.69828571429 695.26509714286 C 1712.32228571429 694.14509714286 1714.59428571429 692.49709714286 1716.51428571429 690.32109714286 L 1720.35428571429 694.73709714286 C 1718.11428571429 697.42509714286 1715.31428571429 699.47309714286 1711.95428571429 700.88109714286 C 1708.59428571429 702.28909714286 1704.89828571429 702.99309714286 1700.86628571429 702.99309714286 C 1695.68228571429 702.99309714286 1691.09028571429 701.88909714286 1687.09028571429 699.68109714286 C 1683.09028571429 697.47309714286 1679.97028571429 694.41709714286 1677.73028571429 690.51309714286 C 1675.49028571429 686.60909714286 1674.37028571429 682.19309714286 1674.37028571429 677.26509714286 C 1674.37028571429 672.33709714286 1675.44228571429 667.92109714286 1677.58628571429 664.01709714286 C 1679.73028571429 660.11309714286 1682.67428571429 657.07309714286 1686.41828571429 654.89709714286 C 1690.16228571429 652.72109714286 1694.37028571429 651.63309714286 1699.04228571429 651.63309714286 C 1703.71428571429 651.63309714286 1707.90628571429 652.72109714286 1711.61828571429 654.89709714286 C 1715.33028571429 657.07309714286 1718.24228571429 660.09709714286 1720.35428571429 663.96909714286 C 1722.46628571429 667.84109714286 1723.52228571429 672.27309714286 1723.52228571429 677.26509714286 L 1723.42628571429 679.37709714286 Z M 1686.80228571429 662.14509714286 C 1683.50628571429 665.24909714286 1681.63428571429 669.29709714286 1681.18628571429 674.28909714286 L 1716.99428571429 674.28909714286 C 1716.54628571429 669.29709714286 1714.67428571429 665.24909714286 1711.37828571429 662.14509714286 C 1708.08228571429 659.04109714286 1703.97028571429 657.48909714286 1699.04228571429 657.48909714286 C 1694.17828571429 657.48909714286 1690.09828571429 659.04109714286 1686.80228571429 662.14509714286 Z"/></svg>