<svg width="1000" height="1000" viewBox="0 0 1000 1000" xmlns="http://www.w3.org/2000/svg"><defs/><path fill="#7dbf50" transform="matrix(1.3970063080430744 0 0 1.3970063080430744 -78.49508812657072 -27.63163903979798)" d="M 350.94626055084 412.75163705211 C 347.04626055084 419.45163705211 338.44626055084 421.75163705211 331.74626055084 417.95163705211 L 245.94626055084 368.35163705211 L 245.94626055084 391.85163705211 C 245.94626055084 403.15163705211 253.94626055084 416.95163705211 263.74626055084 422.65163705211 L 396.34626055084 499.25163705211 C 406.14626055084 504.85163705211 422.14626055084 504.85163705211 431.84626055084 499.25163705211 L 478.34626055084 472.35163705211 L 351.04626055084 398.85163705211 C 353.34626055084 403.05163705211 353.54626055084 408.35163705211 350.94626055084 412.75163705211 Z"/><path fill="#7dbf50" transform="matrix(1.3970063080430744 0 0 1.3970063080430744 -78.49508812657072 -27.63163903979798)" d="M 439.74626055084 379.95163705211 C 435.84626055084 386.65163705211 427.24626055084 388.95163705211 420.54626055084 385.15163705211 L 245.84626055084 284.25163705211 L 245.84626055084 321.25163705211 L 492.84626055084 463.85163705211 L 551.04626055084 430.25163705211 L 439.74626055084 365.95163705211 C 442.14626055084 370.25163705211 442.34626055084 375.55163705211 439.74626055084 379.95163705211 Z"/><path fill="#bddc3f" transform="matrix(1.3970063080430744 0 0 1.3970063080430744 -78.49508812657072 -27.63163903979798)" d="M 529.74626055084 347.85163705211 C 525.84626055084 354.55163705211 517.24626055084 356.85163705211 510.54626055084 353.05163705211 L 261.54626055084 209.25163705211 C 253.14626055084 215.25163705211 246.54626055084 227.05163705211 245.94626055084 237.25163705211 L 565.64626055084 421.85163705211 C 574.84626055084 415.85163705211 582.24626055084 402.65163705211 582.24626055084 391.85163705211 L 582.24626055084 364.15163705211 L 529.84626055084 333.85163705211 C 532.14626055084 338.15163705211 532.34626055084 343.35163705211 529.74626055084 347.85163705211 Z"/><path fill="#bddc3f" transform="matrix(1.3970063080430744 0 0 1.3970063080430744 -78.49508812657072 -27.63163903979798)" d="M 503.64626055084 248.75163705211 C 499.74626055084 255.45163705211 491.14626055084 257.75163705211 484.44626055084 253.95163705211 L 334.24626055084 167.25163705211 L 302.24626055084 185.75163705211 L 582.34626055084 347.45163705211 L 582.34626055084 280.25163705211 L 503.84626055084 234.95163705211 C 506.04626055084 239.05163705211 506.24626055084 244.25163705211 503.64626055084 248.75163705211 Z"/><path fill="#bddc3f" transform="matrix(1.3970063080430744 0 0 1.3970063080430744 -78.49508812657072 -27.63163903979798)" d="M 582.24626055084 238.65163705211 C 582.24626055084 227.35163705211 574.24626055084 213.55163705211 564.44626055084 207.85163705211 L 431.84626055084 131.35163705211 C 422.04626055084 125.75163705211 406.04626055084 125.75163705211 396.34626055084 131.35163705211 L 374.94626055084 143.65163705211 L 582.24626055084 263.35163705211 L 582.24626055084 238.65163705211 Z"/><path id="text" fill="#39844f" transform="matrix(0.5610628775151648 0 0 0.5610628775151648 -4.470549008040833 707.703543352527)" d="M 475.24571428571 79.07544685714 C 479.62971428571 81.05944685714 483.00571428571 83.87544685714 485.37371428571 87.52344685714 C 487.74171428571 91.17144685714 488.92571428571 95.49144685714 488.92571428571 100.48344685714 C 488.92571428571 105.41144685714 487.74171428571 109.71544685714 485.37371428571 113.39544685714 C 483.00571428571 117.07544685714 479.62971428571 119.89144685714 475.24571428571 121.84344685714 C 470.86171428571 123.79544685714 465.69371428571 124.77144685714 459.74171428571 124.77144685714 L 446.20571428571 124.77144685714 L 446.20571428571 143.29944685714 L 430.65371428571 143.29944685714 L 430.65371428571 76.09944685714 L 459.74171428571 76.09944685714 C 465.69371428571 76.09944685714 470.86171428571 77.09144685714 475.24571428571 79.07544685714 Z M 469.53371428571 109.07544685714 C 471.96571428571 107.05944685714 473.18171428571 104.19544685714 473.18171428571 100.48344685714 C 473.18171428571 96.70744685714 471.96571428571 93.81144685714 469.53371428571 91.79544685714 C 467.10171428571 89.77944685714 463.54971428571 88.77144685714 458.87771428571 88.77144685714 L 446.20571428571 88.77144685714 L 446.20571428571 112.09944685714 L 458.87771428571 112.09944685714 C 463.54971428571 112.09944685714 467.10171428571 111.09144685714 469.53371428571 109.07544685714 Z M 499.96571428571 76.09944685714 L 515.51771428571 76.09944685714 L 515.51771428571 130.62744685714 L 549.21371428571 130.62744685714 L 549.21371428571 143.29944685714 L 499.96571428571 143.29944685714 L 499.96571428571 76.09944685714 Z M 602.78171428571 128.89944685714 L 571.58171428571 128.89944685714 L 565.62971428571 143.29944685714 L 549.69371428571 143.29944685714 L 579.64571428571 76.09944685714 L 595.00571428571 76.09944685714 L 625.05371428571 143.29944685714 L 608.73371428571 143.29944685714 L 602.78171428571 128.89944685714 Z M 597.88571428571 117.09144685714 L 587.22971428571 91.36344685714 L 576.57371428571 117.09144685714 L 597.88571428571 117.09144685714 Z M 693.69371428571 76.09944685714 L 693.69371428571 143.29944685714 L 680.92571428571 143.29944685714 L 647.42171428571 102.49944685714 L 647.42171428571 143.29944685714 L 632.06171428571 143.29944685714 L 632.06171428571 76.09944685714 L 644.92571428571 76.09944685714 L 678.33371428571 116.89944685714 L 678.33371428571 76.09944685714 L 693.69371428571 76.09944685714 Z M 771.26171428571 76.09944685714 L 771.26171428571 143.29944685714 L 758.49371428571 143.29944685714 L 724.98971428571 102.49944685714 L 724.98971428571 143.29944685714 L 709.62971428571 143.29944685714 L 709.62971428571 76.09944685714 L 722.49371428571 76.09944685714 L 755.90171428571 116.89944685714 L 755.90171428571 76.09944685714 L 771.26171428571 76.09944685714 Z M 787.19771428571 76.09944685714 L 802.74971428571 76.09944685714 L 802.74971428571 143.29944685714 L 787.19771428571 143.29944685714 L 787.19771428571 76.09944685714 Z M 880.31771428571 76.09944685714 L 880.31771428571 143.29944685714 L 867.54971428571 143.29944685714 L 834.04571428571 102.49944685714 L 834.04571428571 143.29944685714 L 818.68571428571 143.29944685714 L 818.68571428571 76.09944685714 L 831.54971428571 76.09944685714 L 864.95771428571 116.89944685714 L 864.95771428571 76.09944685714 L 880.31771428571 76.09944685714 Z M 941.66171428571 108.64344685714 L 955.86971428571 108.64344685714 L 955.86971428571 135.90744685714 C 952.22171428571 138.65944685714 947.99771428571 140.77144685714 943.19771428571 142.24344685714 C 938.39771428571 143.71544685714 933.56571428571 144.45144685714 928.70171428571 144.45144685714 C 921.72571428571 144.45144685714 915.45371428571 142.96344685714 909.88571428571 139.98744685714 C 904.31771428571 137.01144685714 899.94971428571 132.88344685714 896.78171428571 127.60344685714 C 893.61371428571 122.32344685714 892.02971428571 116.35544685714 892.02971428571 109.69944685714 C 892.02971428571 103.04344685714 893.61371428571 97.07544685714 896.78171428571 91.79544685714 C 899.94971428571 86.51544685714 904.34971428571 82.38744685714 909.98171428571 79.41144685714 C 915.61371428571 76.43544685714 921.94971428571 74.94744685714 928.98971428571 74.94744685714 C 934.87771428571 74.94744685714 940.22171428571 75.93944685714 945.02171428571 77.92344685714 C 949.82171428571 79.90744685714 953.85371428571 82.78744685714 957.11771428571 86.56344685714 L 947.13371428571 95.77944685714 C 942.33371428571 90.72344685714 936.54171428571 88.19544685714 929.75771428571 88.19544685714 C 925.46971428571 88.19544685714 921.66171428571 89.09144685714 918.33371428571 90.88344685714 C 915.00571428571 92.67544685714 912.41371428571 95.20344685714 910.55771428571 98.46744685714 C 908.70171428571 101.73144685714 907.77371428571 105.47544685714 907.77371428571 109.69944685714 C 907.77371428571 113.85944685714 908.70171428571 117.57144685714 910.55771428571 120.83544685714 C 912.41371428571 124.09944685714 914.98971428571 126.64344685714 918.28571428571 128.46744685714 C 921.58171428571 130.29144685714 925.34171428571 131.20344685714 929.56571428571 131.20344685714 C 934.04571428571 131.20344685714 938.07771428571 130.24344685714 941.66171428571 128.32344685714 L 941.66171428571 108.64344685714 Z M 1055.80571428571 114.45144685714 C 1057.98171428571 117.29944685714 1059.06971428571 120.80344685714 1059.06971428571 124.96344685714 C 1059.06971428571 130.85144685714 1056.78171428571 135.37944685714 1052.20571428571 138.54744685714 C 1047.62971428571 141.71544685714 1040.95771428571 143.29944685714 1032.18971428571 143.29944685714 L 997.43771428571 143.29944685714 L 997.43771428571 76.09944685714 L 1030.26971428571 76.09944685714 C 1038.46171428571 76.09944685714 1044.74971428571 77.66744685714 1049.13371428571 80.80344685714 C 1053.51771428571 83.93944685714 1055.70971428571 88.19544685714 1055.70971428571 93.57144685714 C 1055.70971428571 96.83544685714 1054.92571428571 99.74744685714 1053.35771428571 102.30744685714 C 1051.78971428571 104.86744685714 1049.59771428571 106.88344685714 1046.78171428571 108.35544685714 C 1050.62171428571 109.57144685714 1053.62971428571 111.60344685714 1055.80571428571 114.45144685714 Z M 1012.89371428571 87.81144685714 L 1012.89371428571 103.65144685714 L 1028.34971428571 103.65144685714 C 1032.18971428571 103.65144685714 1035.10171428571 102.97944685714 1037.08571428571 101.63544685714 C 1039.06971428571 100.29144685714 1040.06171428571 98.30744685714 1040.06171428571 95.68344685714 C 1040.06171428571 93.05944685714 1039.06971428571 91.09144685714 1037.08571428571 89.77944685714 C 1035.10171428571 88.46744685714 1032.18971428571 87.81144685714 1028.34971428571 87.81144685714 L 1012.89371428571 87.81144685714 Z M 1040.30171428571 129.57144685714 C 1042.38171428571 128.22744685714 1043.42171428571 126.14744685714 1043.42171428571 123.33144685714 C 1043.42171428571 117.76344685714 1039.29371428571 114.97944685714 1031.03771428571 114.97944685714 L 1012.89371428571 114.97944685714 L 1012.89371428571 131.58744685714 L 1031.03771428571 131.58744685714 C 1035.13371428571 131.58744685714 1038.22171428571 130.91544685714 1040.30171428571 129.57144685714 Z M 1101.69371428571 119.49144685714 L 1101.69371428571 143.29944685714 L 1086.14171428571 143.29944685714 L 1086.14171428571 119.29944685714 L 1060.12571428571 76.09944685714 L 1076.63771428571 76.09944685714 L 1094.58971428571 105.95544685714 L 1112.54171428571 76.09944685714 L 1127.80571428571 76.09944685714 L 1101.69371428571 119.49144685714 Z M 1161.50171428571 76.09944685714 L 1192.02971428571 76.09944685714 C 1199.32571428571 76.09944685714 1205.77371428571 77.49144685714 1211.37371428571 80.27544685714 C 1216.97371428571 83.05944685714 1221.32571428571 86.97944685714 1224.42971428571 92.03544685714 C 1227.53371428571 97.09144685714 1229.08571428571 102.97944685714 1229.08571428571 109.69944685714 C 1229.08571428571 116.41944685714 1227.53371428571 122.30744685714 1224.42971428571 127.36344685714 C 1221.32571428571 132.41944685714 1216.97371428571 136.33944685714 1211.37371428571 139.12344685714 C 1205.77371428571 141.90744685714 1199.32571428571 143.29944685714 1192.02971428571 143.29944685714 L 1161.50171428571 143.29944685714 L 1161.50171428571 76.09944685714 Z M 1191.26171428571 130.53144685714 C 1197.98171428571 130.53144685714 1203.34171428571 128.65944685714 1207.34171428571 124.91544685714 C 1211.34171428571 121.17144685714 1213.34171428571 116.09944685714 1213.34171428571 109.69944685714 C 1213.34171428571 103.29944685714 1211.34171428571 98.22744685714 1207.34171428571 94.48344685714 C 1203.34171428571 90.73944685714 1197.98171428571 88.86744685714 1191.26171428571 88.86744685714 L 1177.05371428571 88.86744685714 L 1177.05371428571 130.53144685714 L 1191.26171428571 130.53144685714 Z M 1284.09371428571 128.89944685714 L 1252.89371428571 128.89944685714 L 1246.94171428571 143.29944685714 L 1231.00571428571 143.29944685714 L 1260.95771428571 76.09944685714 L 1276.31771428571 76.09944685714 L 1306.36571428571 143.29944685714 L 1290.04571428571 143.29944685714 L 1284.09371428571 128.89944685714 Z M 1279.19771428571 117.09144685714 L 1268.54171428571 91.36344685714 L 1257.88571428571 117.09144685714 L 1279.19771428571 117.09144685714 Z M 1341.50171428571 119.49144685714 L 1341.50171428571 143.29944685714 L 1325.94971428571 143.29944685714 L 1325.94971428571 119.29944685714 L 1299.93371428571 76.09944685714 L 1316.44571428571 76.09944685714 L 1334.39771428571 105.95544685714 L 1352.34971428571 76.09944685714 L 1367.61371428571 76.09944685714 L 1341.50171428571 119.49144685714 Z"/><path id="text" fill="#7fba3c" transform="matrix(0.2805314387575824 0 0 0.2805314387575824 -0.10772407248291165 764.2407273939751)" d="M 1421.70742857143 225.54289371429 L 1398.09142857143 225.54289371429 L 1398.09142857143 219.39889371429 L 1452.42742857143 219.39889371429 L 1452.42742857143 225.54289371429 L 1428.81142857143 225.54289371429 L 1428.81142857143 286.59889371429 L 1421.70742857143 286.59889371429 L 1421.70742857143 225.54289371429 Z M 1497.16342857143 240.66289371429 C 1500.68342857143 243.95889371429 1502.44342857143 248.83889371429 1502.44342857143 255.30289371429 L 1502.44342857143 286.59889371429 L 1495.91542857143 286.59889371429 L 1495.91542857143 278.72689371429 C 1494.37942857143 281.35089371429 1492.12342857143 283.39889371429 1489.14742857143 284.87089371429 C 1486.17142857143 286.34289371429 1482.63542857143 287.07889371429 1478.53942857143 287.07889371429 C 1472.90742857143 287.07889371429 1468.42742857143 285.73489371429 1465.09942857143 283.04689371429 C 1461.77142857143 280.35889371429 1460.10742857143 276.80689371429 1460.10742857143 272.39089371429 C 1460.10742857143 268.10289371429 1461.65942857143 264.64689371429 1464.76342857143 262.02289371429 C 1467.86742857143 259.39889371429 1472.81142857143 258.08689371429 1479.59542857143 258.08689371429 L 1495.62742857143 258.08689371429 L 1495.62742857143 255.01489371429 C 1495.62742857143 250.66289371429 1494.41142857143 247.35089371429 1491.97942857143 245.07889371429 C 1489.54742857143 242.80689371429 1485.99542857143 241.67089371429 1481.32342857143 241.67089371429 C 1478.12342857143 241.67089371429 1475.05142857143 242.19889371429 1472.10742857143 243.25489371429 C 1469.16342857143 244.31089371429 1466.63542857143 245.76689371429 1464.52342857143 247.62289371429 L 1461.45142857143 242.53489371429 C 1464.01142857143 240.35889371429 1467.08342857143 238.67889371429 1470.66742857143 237.49489371429 C 1474.25142857143 236.31089371429 1478.02742857143 235.71889371429 1481.99542857143 235.71889371429 C 1488.58742857143 235.71889371429 1493.64342857143 237.36689371429 1497.16342857143 240.66289371429 Z M 1489.48342857143 279.06289371429 C 1492.23542857143 277.30289371429 1494.28342857143 274.75889371429 1495.62742857143 271.43089371429 L 1495.62742857143 263.17489371429 L 1479.78742857143 263.17489371429 C 1471.14742857143 263.17489371429 1466.82742857143 266.18289371429 1466.82742857143 272.19889371429 C 1466.82742857143 275.14289371429 1467.94742857143 277.46289371429 1470.18742857143 279.15889371429 C 1472.42742857143 280.85489371429 1475.56342857143 281.70289371429 1479.59542857143 281.70289371429 C 1483.43542857143 281.70289371429 1486.73142857143 280.82289371429 1489.48342857143 279.06289371429 Z M 1544.49142857143 261.25489371429 L 1532.58742857143 272.19889371429 L 1532.58742857143 286.59889371429 L 1525.77142857143 286.59889371429 L 1525.77142857143 215.36689371429 L 1532.58742857143 215.36689371429 L 1532.58742857143 263.65489371429 L 1562.73142857143 236.10289371429 L 1571.17942857143 236.10289371429 L 1549.57942857143 256.74289371429 L 1573.19542857143 286.59889371429 L 1564.84342857143 286.59889371429 L 1544.49142857143 261.25489371429 Z M 1630.21942857143 263.46289371429 L 1587.97942857143 263.46289371429 C 1588.36342857143 268.71089371429 1590.37942857143 272.95089371429 1594.02742857143 276.18289371429 C 1597.67542857143 279.41489371429 1602.28342857143 281.03089371429 1607.85142857143 281.03089371429 C 1610.98742857143 281.03089371429 1613.86742857143 280.47089371429 1616.49142857143 279.35089371429 C 1619.11542857143 278.23089371429 1621.38742857143 276.58289371429 1623.30742857143 274.40689371429 L 1627.14742857143 278.82289371429 C 1624.90742857143 281.51089371429 1622.10742857143 283.55889371429 1618.74742857143 284.96689371429 C 1615.38742857143 286.37489371429 1611.69142857143 287.07889371429 1607.65942857143 287.07889371429 C 1602.47542857143 287.07889371429 1597.88342857143 285.97489371429 1593.88342857143 283.76689371429 C 1589.88342857143 281.55889371429 1586.76342857143 278.50289371429 1584.52342857143 274.59889371429 C 1582.28342857143 270.69489371429 1581.16342857143 266.27889371429 1581.16342857143 261.35089371429 C 1581.16342857143 256.42289371429 1582.23542857143 252.00689371429 1584.37942857143 248.10289371429 C 1586.52342857143 244.19889371429 1589.46742857143 241.15889371429 1593.21142857143 238.98289371429 C 1596.95542857143 236.80689371429 1601.16342857143 235.71889371429 1605.83542857143 235.71889371429 C 1610.50742857143 235.71889371429 1614.69942857143 236.80689371429 1618.41142857143 238.98289371429 C 1622.12342857143 241.15889371429 1625.03542857143 244.18289371429 1627.14742857143 248.05489371429 C 1629.25942857143 251.92689371429 1630.31542857143 256.35889371429 1630.31542857143 261.35089371429 L 1630.21942857143 263.46289371429 Z M 1593.59542857143 246.23089371429 C 1590.29942857143 249.33489371429 1588.42742857143 253.38289371429 1587.97942857143 258.37489371429 L 1623.78742857143 258.37489371429 C 1623.33942857143 253.38289371429 1621.46742857143 249.33489371429 1618.17142857143 246.23089371429 C 1614.87542857143 243.12689371429 1610.76342857143 241.57489371429 1605.83542857143 241.57489371429 C 1600.97142857143 241.57489371429 1596.89142857143 243.12689371429 1593.59542857143 246.23089371429 Z M 1721.41942857143 236.10289371429 L 1696.17142857143 292.64689371429 C 1694.12342857143 297.38289371429 1691.75542857143 300.74289371429 1689.06742857143 302.72689371429 C 1686.37942857143 304.71089371429 1683.14742857143 305.70289371429 1679.37142857143 305.70289371429 C 1676.93942857143 305.70289371429 1674.66742857143 305.31889371429 1672.55542857143 304.55089371429 C 1670.44342857143 303.78289371429 1668.61942857143 302.63089371429 1667.08342857143 301.09489371429 L 1670.25142857143 296.00689371429 C 1672.81142857143 298.56689371429 1675.88342857143 299.84689371429 1679.46742857143 299.84689371429 C 1681.77142857143 299.84689371429 1683.73942857143 299.20689371429 1685.37142857143 297.92689371429 C 1687.00342857143 296.64689371429 1688.52342857143 294.47089371429 1689.93142857143 291.39889371429 L 1692.13942857143 286.50289371429 L 1669.57942857143 236.10289371429 L 1676.68342857143 236.10289371429 L 1695.69142857143 279.01489371429 L 1714.69942857143 236.10289371429 L 1721.41942857143 236.10289371429 Z M 1741.86742857143 283.76689371429 C 1737.96342857143 281.55889371429 1734.89142857143 278.50289371429 1732.65142857143 274.59889371429 C 1730.41142857143 270.69489371429 1729.29142857143 266.27889371429 1729.29142857143 261.35089371429 C 1729.29142857143 256.42289371429 1730.41142857143 252.00689371429 1732.65142857143 248.10289371429 C 1734.89142857143 244.19889371429 1737.96342857143 241.15889371429 1741.86742857143 238.98289371429 C 1745.77142857143 236.80689371429 1750.15542857143 235.71889371429 1755.01942857143 235.71889371429 C 1759.88342857143 235.71889371429 1764.26742857143 236.80689371429 1768.17142857143 238.98289371429 C 1772.07542857143 241.15889371429 1775.13142857143 244.19889371429 1777.33942857143 248.10289371429 C 1779.54742857143 252.00689371429 1780.65142857143 256.42289371429 1780.65142857143 261.35089371429 C 1780.65142857143 266.27889371429 1779.54742857143 270.69489371429 1777.33942857143 274.59889371429 C 1775.13142857143 278.50289371429 1772.07542857143 281.55889371429 1768.17142857143 283.76689371429 C 1764.26742857143 285.97489371429 1759.88342857143 287.07889371429 1755.01942857143 287.07889371429 C 1750.15542857143 287.07889371429 1745.77142857143 285.97489371429 1741.86742857143 283.76689371429 Z M 1764.66742857143 278.58289371429 C 1767.51542857143 276.95089371429 1769.73942857143 274.63089371429 1771.33942857143 271.62289371429 C 1772.93942857143 268.61489371429 1773.73942857143 265.19089371429 1773.73942857143 261.35089371429 C 1773.73942857143 257.51089371429 1772.93942857143 254.08689371429 1771.33942857143 251.07889371429 C 1769.73942857143 248.07089371429 1767.51542857143 245.75089371429 1764.66742857143 244.11889371429 C 1761.81942857143 242.48689371429 1758.60342857143 241.67089371429 1755.01942857143 241.67089371429 C 1751.43542857143 241.67089371429 1748.21942857143 242.48689371429 1745.37142857143 244.11889371429 C 1742.52342857143 245.75089371429 1740.28342857143 248.07089371429 1738.65142857143 251.07889371429 C 1737.01942857143 254.08689371429 1736.20342857143 257.51089371429 1736.20342857143 261.35089371429 C 1736.20342857143 265.19089371429 1737.01942857143 268.61489371429 1738.65142857143 271.62289371429 C 1740.28342857143 274.63089371429 1742.52342857143 276.95089371429 1745.37142857143 278.58289371429 C 1748.21942857143 280.21489371429 1751.43542857143 281.03089371429 1755.01942857143 281.03089371429 C 1758.60342857143 281.03089371429 1761.81942857143 280.21489371429 1764.66742857143 278.58289371429 Z M 1844.87542857143 236.10289371429 L 1844.87542857143 286.59889371429 L 1838.34742857143 286.59889371429 L 1838.34742857143 277.38289371429 C 1836.55542857143 280.45489371429 1834.09142857143 282.83889371429 1830.95542857143 284.53489371429 C 1827.81942857143 286.23089371429 1824.23542857143 287.07889371429 1820.20342857143 287.07889371429 C 1813.61142857143 287.07889371429 1808.41142857143 285.23889371429 1804.60342857143 281.55889371429 C 1800.79542857143 277.87889371429 1798.89142857143 272.48689371429 1798.89142857143 265.38289371429 L 1798.89142857143 236.10289371429 L 1805.70742857143 236.10289371429 L 1805.70742857143 264.71089371429 C 1805.70742857143 270.02289371429 1807.01942857143 274.05489371429 1809.64342857143 276.80689371429 C 1812.26742857143 279.55889371429 1816.01142857143 280.93489371429 1820.87542857143 280.93489371429 C 1826.18742857143 280.93489371429 1830.37942857143 279.31889371429 1833.45142857143 276.08689371429 C 1836.52342857143 272.85489371429 1838.05942857143 268.35889371429 1838.05942857143 262.59889371429 L 1838.05942857143 236.10289371429 L 1844.87542857143 236.10289371429 Z M 1882.45942857143 238.31089371429 C 1885.62742857143 236.58289371429 1889.54742857143 235.71889371429 1894.21942857143 235.71889371429 L 1894.21942857143 242.34289371429 L 1892.58742857143 242.24689371429 C 1887.27542857143 242.24689371429 1883.11542857143 243.87889371429 1880.10742857143 247.14289371429 C 1877.09942857143 250.40689371429 1875.59542857143 254.98289371429 1875.59542857143 260.87089371429 L 1875.59542857143 286.59889371429 L 1868.77942857143 286.59889371429 L 1868.77942857143 236.10289371429 L 1875.30742857143 236.10289371429 L 1875.30742857143 245.99089371429 C 1876.90742857143 242.59889371429 1879.29142857143 240.03889371429 1882.45942857143 238.31089371429 Z M 1968.61942857143 283.52689371429 C 1967.33942857143 284.67889371429 1965.75542857143 285.55889371429 1963.86742857143 286.16689371429 C 1961.97942857143 286.77489371429 1960.01142857143 287.07889371429 1957.96342857143 287.07889371429 C 1953.22742857143 287.07889371429 1949.57942857143 285.79889371429 1947.01942857143 283.23889371429 C 1944.45942857143 280.67889371429 1943.17942857143 277.06289371429 1943.17942857143 272.39089371429 L 1943.17942857143 241.86289371429 L 1934.15542857143 241.86289371429 L 1934.15542857143 236.10289371429 L 1943.17942857143 236.10289371429 L 1943.17942857143 225.06289371429 L 1949.99542857143 225.06289371429 L 1949.99542857143 236.10289371429 L 1965.35542857143 236.10289371429 L 1965.35542857143 241.86289371429 L 1949.99542857143 241.86289371429 L 1949.99542857143 272.00689371429 C 1949.99542857143 275.01489371429 1950.74742857143 277.30289371429 1952.25142857143 278.87089371429 C 1953.75542857143 280.43889371429 1955.91542857143 281.22289371429 1958.73142857143 281.22289371429 C 1960.13942857143 281.22289371429 1961.49942857143 280.99889371429 1962.81142857143 280.55089371429 C 1964.12342857143 280.10289371429 1965.25942857143 279.46289371429 1966.21942857143 278.63089371429 L 1968.61942857143 283.52689371429 Z M 1985.80342857143 236.10289371429 L 1992.61942857143 236.10289371429 L 1992.61942857143 286.59889371429 L 1985.80342857143 286.59889371429 L 1985.80342857143 236.10289371429 Z M 1985.70742857143 223.62289371429 C 1984.74742857143 222.66289371429 1984.26742857143 221.51089371429 1984.26742857143 220.16689371429 C 1984.26742857143 218.88689371429 1984.74742857143 217.76689371429 1985.70742857143 216.80689371429 C 1986.66742857143 215.84689371429 1987.85142857143 215.36689371429 1989.25942857143 215.36689371429 C 1990.66742857143 215.36689371429 1991.85142857143 215.83089371429 1992.81142857143 216.75889371429 C 1993.77142857143 217.68689371429 1994.25142857143 218.79089371429 1994.25142857143 220.07089371429 C 1994.25142857143 221.47889371429 1993.77142857143 222.66289371429 1992.81142857143 223.62289371429 C 1991.85142857143 224.58289371429 1990.66742857143 225.06289371429 1989.25942857143 225.06289371429 C 1987.85142857143 225.06289371429 1986.66742857143 224.58289371429 1985.70742857143 223.62289371429 Z M 2094.33142857143 241.19089371429 C 2097.94742857143 244.83889371429 2099.75542857143 250.21489371429 2099.75542857143 257.31889371429 L 2099.75542857143 286.59889371429 L 2092.93942857143 286.59889371429 L 2092.93942857143 257.99089371429 C 2092.93942857143 252.74289371429 2091.67542857143 248.74289371429 2089.14742857143 245.99089371429 C 2086.61942857143 243.23889371429 2083.05142857143 241.86289371429 2078.44342857143 241.86289371429 C 2073.19542857143 241.86289371429 2069.06742857143 243.47889371429 2066.05942857143 246.71089371429 C 2063.05142857143 249.94289371429 2061.54742857143 254.40689371429 2061.54742857143 260.10289371429 L 2061.54742857143 286.59889371429 L 2054.73142857143 286.59889371429 L 2054.73142857143 257.99089371429 C 2054.73142857143 252.74289371429 2053.46742857143 248.74289371429 2050.93942857143 245.99089371429 C 2048.41142857143 243.23889371429 2044.81142857143 241.86289371429 2040.13942857143 241.86289371429 C 2034.95542857143 241.86289371429 2030.84342857143 243.47889371429 2027.80342857143 246.71089371429 C 2024.76342857143 249.94289371429 2023.24342857143 254.40689371429 2023.24342857143 260.10289371429 L 2023.24342857143 286.59889371429 L 2016.42742857143 286.59889371429 L 2016.42742857143 236.10289371429 L 2022.95542857143 236.10289371429 L 2022.95542857143 245.31889371429 C 2024.74742857143 242.24689371429 2027.24342857143 239.87889371429 2030.44342857143 238.21489371429 C 2033.64342857143 236.55089371429 2037.32342857143 235.71889371429 2041.48342857143 235.71889371429 C 2045.70742857143 235.71889371429 2049.37142857143 236.61489371429 2052.47542857143 238.40689371429 C 2055.57942857143 240.19889371429 2057.89942857143 242.85489371429 2059.43542857143 246.37489371429 C 2061.29142857143 243.04689371429 2063.96342857143 240.43889371429 2067.45142857143 238.55089371429 C 2070.93942857143 236.66289371429 2074.92342857143 235.71889371429 2079.40342857143 235.71889371429 C 2085.73942857143 235.71889371429 2090.71542857143 237.54289371429 2094.33142857143 241.19089371429 Z M 2167.24342857143 263.46289371429 L 2125.00342857143 263.46289371429 C 2125.38742857143 268.71089371429 2127.40342857143 272.95089371429 2131.05142857143 276.18289371429 C 2134.69942857143 279.41489371429 2139.30742857143 281.03089371429 2144.87542857143 281.03089371429 C 2148.01142857143 281.03089371429 2150.89142857143 280.47089371429 2153.51542857143 279.35089371429 C 2156.13942857143 278.23089371429 2158.41142857143 276.58289371429 2160.33142857143 274.40689371429 L 2164.17142857143 278.82289371429 C 2161.93142857143 281.51089371429 2159.13142857143 283.55889371429 2155.77142857143 284.96689371429 C 2152.41142857143 286.37489371429 2148.71542857143 287.07889371429 2144.68342857143 287.07889371429 C 2139.49942857143 287.07889371429 2134.90742857143 285.97489371429 2130.90742857143 283.76689371429 C 2126.90742857143 281.55889371429 2123.78742857143 278.50289371429 2121.54742857143 274.59889371429 C 2119.30742857143 270.69489371429 2118.18742857143 266.27889371429 2118.18742857143 261.35089371429 C 2118.18742857143 256.42289371429 2119.25942857143 252.00689371429 2121.40342857143 248.10289371429 C 2123.54742857143 244.19889371429 2126.49142857143 241.15889371429 2130.23542857143 238.98289371429 C 2133.97942857143 236.80689371429 2138.18742857143 235.71889371429 2142.85942857143 235.71889371429 C 2147.53142857143 235.71889371429 2151.72342857143 236.80689371429 2155.43542857143 238.98289371429 C 2159.14742857143 241.15889371429 2162.05942857143 244.18289371429 2164.17142857143 248.05489371429 C 2166.28342857143 251.92689371429 2167.33942857143 256.35889371429 2167.33942857143 261.35089371429 L 2167.24342857143 263.46289371429 Z M 2130.61942857143 246.23089371429 C 2127.32342857143 249.33489371429 2125.45142857143 253.38289371429 2125.00342857143 258.37489371429 L 2160.81142857143 258.37489371429 C 2160.36342857143 253.38289371429 2158.49142857143 249.33489371429 2155.19542857143 246.23089371429 C 2151.89942857143 243.12689371429 2147.78742857143 241.57489371429 2142.85942857143 241.57489371429 C 2137.99542857143 241.57489371429 2133.91542857143 243.12689371429 2130.61942857143 246.23089371429 Z"/></svg>