<svg width="1000" height="1000" viewBox="0 0 1000 1000" xmlns="http://www.w3.org/2000/svg"><defs/><path fill="#7dbf50" transform="matrix(0.39052546880704325 0 0 0.39052546880704325 57.22965847901864 -9.192892445293836)" d="M 342.65260266218 1401.31602953387 C 338.75260266218 1408.01602953387 330.15260266218 1410.31602953387 323.45260266218 1406.51602953387 L 237.65260266218 1356.91602953387 L 237.65260266218 1380.41602953387 C 237.65260266218 1391.71602953387 245.65260266218 1405.51602953387 255.45260266218 1411.21602953387 L 388.05260266218 1487.81602953387 C 397.85260266218 1493.41602953387 413.85260266218 1493.41602953387 423.55260266218 1487.81602953387 L 470.05260266218 1460.91602953387 L 342.75260266218 1387.41602953387 C 345.05260266218 1391.61602953387 345.25260266218 1396.91602953387 342.65260266218 1401.31602953387 Z"/><path fill="#7dbf50" transform="matrix(0.39052546880704325 0 0 0.39052546880704325 57.22965847901864 -9.192892445293836)" d="M 431.45260266218 1368.51602953387 C 427.55260266218 1375.21602953387 418.95260266218 1377.51602953387 412.25260266218 1373.71602953387 L 237.55260266218 1272.81602953387 L 237.55260266218 1309.81602953387 L 484.55260266218 1452.41602953387 L 542.75260266218 1418.81602953387 L 431.45260266218 1354.51602953387 C 433.85260266218 1358.81602953387 434.05260266218 1364.11602953387 431.45260266218 1368.51602953387 Z"/><path fill="#bddc3f" transform="matrix(0.39052546880704325 0 0 0.39052546880704325 57.22965847901864 -9.192892445293836)" d="M 521.45260266218 1336.41602953387 C 517.55260266218 1343.11602953387 508.95260266218 1345.41602953387 502.25260266218 1341.61602953387 L 253.25260266218 1197.81602953387 C 244.85260266218 1203.81602953387 238.25260266218 1215.61602953387 237.65260266218 1225.81602953387 L 557.35260266218 1410.41602953387 C 566.55260266218 1404.41602953387 573.95260266218 1391.21602953387 573.95260266218 1380.41602953387 L 573.95260266218 1352.71602953387 L 521.55260266218 1322.41602953387 C 523.85260266218 1326.71602953387 524.05260266218 1331.91602953387 521.45260266218 1336.41602953387 Z"/><path fill="#bddc3f" transform="matrix(0.39052546880704325 0 0 0.39052546880704325 57.22965847901864 -9.192892445293836)" d="M 495.35260266218 1237.31602953387 C 491.45260266218 1244.01602953387 482.85260266218 1246.31602953387 476.15260266218 1242.51602953387 L 325.95260266218 1155.81602953387 L 293.95260266218 1174.31602953387 L 574.05260266218 1336.01602953387 L 574.05260266218 1268.81602953387 L 495.55260266218 1223.51602953387 C 497.75260266218 1227.61602953387 497.95260266218 1232.81602953387 495.35260266218 1237.31602953387 Z"/><path fill="#bddc3f" transform="matrix(0.39052546880704325 0 0 0.39052546880704325 57.22965847901864 -9.192892445293836)" d="M 573.95260266218 1227.21602953387 C 573.95260266218 1215.91602953387 565.95260266218 1202.11602953387 556.15260266218 1196.41602953387 L 423.55260266218 1119.91602953387 C 413.75260266218 1114.31602953387 397.75260266218 1114.31602953387 388.05260266218 1119.91602953387 L 366.65260266218 1132.21602953387 L 573.95260266218 1251.91602953387 L 573.95260266218 1227.21602953387 Z"/><path id="text" fill="#39844f" transform="matrix(0.548322191546858 0 0 0.548322191546858 275.77500818601044 17.303374088625894)" d="M 154.87210931248 795.10768547253 C 159.25610931248 797.09168547253 162.63210931248 799.90768547253 165.00010931248 803.55568547253 C 167.36810931248 807.20368547253 168.55210931248 811.52368547253 168.55210931248 816.51568547253 C 168.55210931248 821.44368547253 167.36810931248 825.74768547253 165.00010931248 829.42768547253 C 162.63210931248 833.10768547253 159.25610931248 835.92368547253 154.87210931248 837.87568547253 C 150.48810931248 839.82768547253 145.32010931248 840.80368547253 139.36810931248 840.80368547253 L 125.83210931248 840.80368547253 L 125.83210931248 859.33168547253 L 110.28010931248 859.33168547253 L 110.28010931248 792.13168547253 L 139.36810931248 792.13168547253 C 145.32010931248 792.13168547253 150.48810931248 793.12368547253 154.87210931248 795.10768547253 Z M 149.16010931248 825.10768547253 C 151.59210931248 823.09168547253 152.80810931248 820.22768547253 152.80810931248 816.51568547253 C 152.80810931248 812.73968547253 151.59210931248 809.84368547253 149.16010931248 807.82768547253 C 146.72810931248 805.81168547253 143.17610931248 804.80368547253 138.50410931248 804.80368547253 L 125.83210931248 804.80368547253 L 125.83210931248 828.13168547253 L 138.50410931248 828.13168547253 C 143.17610931248 828.13168547253 146.72810931248 827.12368547253 149.16010931248 825.10768547253 Z M 179.59210931248 792.13168547253 L 195.14410931248 792.13168547253 L 195.14410931248 846.65968547253 L 228.84010931248 846.65968547253 L 228.84010931248 859.33168547253 L 179.59210931248 859.33168547253 L 179.59210931248 792.13168547253 Z M 282.40810931248 844.93168547253 L 251.20810931248 844.93168547253 L 245.25610931248 859.33168547253 L 229.32010931248 859.33168547253 L 259.27210931248 792.13168547253 L 274.63210931248 792.13168547253 L 304.68010931248 859.33168547253 L 288.36010931248 859.33168547253 L 282.40810931248 844.93168547253 Z M 277.51210931248 833.12368547253 L 266.85610931248 807.39568547253 L 256.20010931248 833.12368547253 L 277.51210931248 833.12368547253 Z M 373.32010931248 792.13168547253 L 373.32010931248 859.33168547253 L 360.55210931248 859.33168547253 L 327.04810931248 818.53168547253 L 327.04810931248 859.33168547253 L 311.68810931248 859.33168547253 L 311.68810931248 792.13168547253 L 324.55210931248 792.13168547253 L 357.96010931248 832.93168547253 L 357.96010931248 792.13168547253 L 373.32010931248 792.13168547253 Z M 450.88810931248 792.13168547253 L 450.88810931248 859.33168547253 L 438.12010931248 859.33168547253 L 404.61610931248 818.53168547253 L 404.61610931248 859.33168547253 L 389.25610931248 859.33168547253 L 389.25610931248 792.13168547253 L 402.12010931248 792.13168547253 L 435.52810931248 832.93168547253 L 435.52810931248 792.13168547253 L 450.88810931248 792.13168547253 Z M 466.82410931248 792.13168547253 L 482.37610931248 792.13168547253 L 482.37610931248 859.33168547253 L 466.82410931248 859.33168547253 L 466.82410931248 792.13168547253 Z M 559.94410931248 792.13168547253 L 559.94410931248 859.33168547253 L 547.17610931248 859.33168547253 L 513.67210931248 818.53168547253 L 513.67210931248 859.33168547253 L 498.31210931248 859.33168547253 L 498.31210931248 792.13168547253 L 511.17610931248 792.13168547253 L 544.58410931248 832.93168547253 L 544.58410931248 792.13168547253 L 559.94410931248 792.13168547253 Z M 621.28810931248 824.67568547253 L 635.49610931248 824.67568547253 L 635.49610931248 851.93968547253 C 631.84810931248 854.69168547253 627.62410931248 856.80368547253 622.82410931248 858.27568547253 C 618.02410931248 859.74768547253 613.19210931248 860.48368547253 608.32810931248 860.48368547253 C 601.35210931248 860.48368547253 595.08010931248 858.99568547253 589.51210931248 856.01968547253 C 583.94410931248 853.04368547253 579.57610931248 848.91568547253 576.40810931248 843.63568547253 C 573.24010931248 838.35568547253 571.65610931248 832.38768547253 571.65610931248 825.73168547253 C 571.65610931248 819.07568547253 573.24010931248 813.10768547253 576.40810931248 807.82768547253 C 579.57610931248 802.54768547253 583.97610931248 798.41968547253 589.60810931248 795.44368547253 C 595.24010931248 792.46768547253 601.57610931248 790.97968547253 608.61610931248 790.97968547253 C 614.50410931248 790.97968547253 619.84810931248 791.97168547253 624.64810931248 793.95568547253 C 629.44810931248 795.93968547253 633.48010931248 798.81968547253 636.74410931248 802.59568547253 L 626.76010931248 811.81168547253 C 621.96010931248 806.75568547253 616.16810931248 804.22768547253 609.38410931248 804.22768547253 C 605.09610931248 804.22768547253 601.28810931248 805.12368547253 597.96010931248 806.91568547253 C 594.63210931248 808.70768547253 592.04010931248 811.23568547253 590.18410931248 814.49968547253 C 588.32810931248 817.76368547253 587.40010931248 821.50768547253 587.40010931248 825.73168547253 C 587.40010931248 829.89168547253 588.32810931248 833.60368547253 590.18410931248 836.86768547253 C 592.04010931248 840.13168547253 594.61610931248 842.67568547253 597.91210931248 844.49968547253 C 601.20810931248 846.32368547253 604.96810931248 847.23568547253 609.19210931248 847.23568547253 C 613.67210931248 847.23568547253 617.70410931248 846.27568547253 621.28810931248 844.35568547253 L 621.28810931248 824.67568547253 Z M 735.43210931248 830.48368547253 C 737.60810931248 833.33168547253 738.69610931248 836.83568547253 738.69610931248 840.99568547253 C 738.69610931248 846.88368547253 736.40810931248 851.41168547253 731.83210931248 854.57968547253 C 727.25610931248 857.74768547253 720.58410931248 859.33168547253 711.81610931248 859.33168547253 L 677.06410931248 859.33168547253 L 677.06410931248 792.13168547253 L 709.89610931248 792.13168547253 C 718.08810931248 792.13168547253 724.37610931248 793.69968547253 728.76010931248 796.83568547253 C 733.14410931248 799.97168547253 735.33610931248 804.22768547253 735.33610931248 809.60368547253 C 735.33610931248 812.86768547253 734.55210931248 815.77968547253 732.98410931248 818.33968547253 C 731.41610931248 820.89968547253 729.22410931248 822.91568547253 726.40810931248 824.38768547253 C 730.24810931248 825.60368547253 733.25610931248 827.63568547253 735.43210931248 830.48368547253 Z M 692.52010931248 803.84368547253 L 692.52010931248 819.68368547253 L 707.97610931248 819.68368547253 C 711.81610931248 819.68368547253 714.72810931248 819.01168547253 716.71210931248 817.66768547253 C 718.69610931248 816.32368547253 719.68810931248 814.33968547253 719.68810931248 811.71568547253 C 719.68810931248 809.09168547253 718.69610931248 807.12368547253 716.71210931248 805.81168547253 C 714.72810931248 804.49968547253 711.81610931248 803.84368547253 707.97610931248 803.84368547253 L 692.52010931248 803.84368547253 Z M 719.92810931248 845.60368547253 C 722.00810931248 844.25968547253 723.04810931248 842.17968547253 723.04810931248 839.36368547253 C 723.04810931248 833.79568547253 718.92010931248 831.01168547253 710.66410931248 831.01168547253 L 692.52010931248 831.01168547253 L 692.52010931248 847.61968547253 L 710.66410931248 847.61968547253 C 714.76010931248 847.61968547253 717.84810931248 846.94768547253 719.92810931248 845.60368547253 Z M 781.32010931248 835.52368547253 L 781.32010931248 859.33168547253 L 765.76810931248 859.33168547253 L 765.76810931248 835.33168547253 L 739.75210931248 792.13168547253 L 756.26410931248 792.13168547253 L 774.21610931248 821.98768547253 L 792.16810931248 792.13168547253 L 807.43210931248 792.13168547253 L 781.32010931248 835.52368547253 Z M 841.12810931248 792.13168547253 L 871.65610931248 792.13168547253 C 878.95210931248 792.13168547253 885.40010931248 793.52368547253 891.00010931248 796.30768547253 C 896.60010931248 799.09168547253 900.95210931248 803.01168547253 904.05610931248 808.06768547253 C 907.16010931248 813.12368547253 908.71210931248 819.01168547253 908.71210931248 825.73168547253 C 908.71210931248 832.45168547253 907.16010931248 838.33968547253 904.05610931248 843.39568547253 C 900.95210931248 848.45168547253 896.60010931248 852.37168547253 891.00010931248 855.15568547253 C 885.40010931248 857.93968547253 878.95210931248 859.33168547253 871.65610931248 859.33168547253 L 841.12810931248 859.33168547253 L 841.12810931248 792.13168547253 Z M 870.88810931248 846.56368547253 C 877.60810931248 846.56368547253 882.96810931248 844.69168547253 886.96810931248 840.94768547253 C 890.96810931248 837.20368547253 892.96810931248 832.13168547253 892.96810931248 825.73168547253 C 892.96810931248 819.33168547253 890.96810931248 814.25968547253 886.96810931248 810.51568547253 C 882.96810931248 806.77168547253 877.60810931248 804.89968547253 870.88810931248 804.89968547253 L 856.68010931248 804.89968547253 L 856.68010931248 846.56368547253 L 870.88810931248 846.56368547253 Z M 963.72010931248 844.93168547253 L 932.52010931248 844.93168547253 L 926.56810931248 859.33168547253 L 910.63210931248 859.33168547253 L 940.58410931248 792.13168547253 L 955.94410931248 792.13168547253 L 985.99210931248 859.33168547253 L 969.67210931248 859.33168547253 L 963.72010931248 844.93168547253 Z M 958.82410931248 833.12368547253 L 948.16810931248 807.39568547253 L 937.51210931248 833.12368547253 L 958.82410931248 833.12368547253 Z M 1021.12810931248 835.52368547253 L 1021.12810931248 859.33168547253 L 1005.57610931248 859.33168547253 L 1005.57610931248 835.33168547253 L 979.56010931248 792.13168547253 L 996.07210931248 792.13168547253 L 1014.02410931248 821.98768547253 L 1031.97610931248 792.13168547253 L 1047.24010931248 792.13168547253 L 1021.12810931248 835.52368547253 Z"/><path id="text" fill="#7fba3c" transform="matrix(0.274161095773429 0 0 0.274161095773429 280.0387615474788 72.55670468641969)" d="M 228.62421862496 1657.60737094507 L 205.00821862496 1657.60737094507 L 205.00821862496 1651.46337094507 L 259.34421862496 1651.46337094507 L 259.34421862496 1657.60737094507 L 235.72821862496 1657.60737094507 L 235.72821862496 1718.66337094507 L 228.62421862496 1718.66337094507 L 228.62421862496 1657.60737094507 Z M 304.08021862496 1672.72737094507 C 307.60021862496 1676.02337094507 309.36021862496 1680.90337094507 309.36021862496 1687.36737094507 L 309.36021862496 1718.66337094507 L 302.83221862496 1718.66337094507 L 302.83221862496 1710.79137094507 C 301.29621862496 1713.41537094507 299.04021862496 1715.46337094507 296.06421862496 1716.93537094507 C 293.08821862496 1718.40737094507 289.55221862496 1719.14337094507 285.45621862496 1719.14337094507 C 279.82421862496 1719.14337094507 275.34421862496 1717.79937094507 272.01621862496 1715.11137094507 C 268.68821862496 1712.42337094507 267.02421862496 1708.87137094507 267.02421862496 1704.45537094507 C 267.02421862496 1700.16737094507 268.57621862496 1696.71137094507 271.68021862496 1694.08737094507 C 274.78421862496 1691.46337094507 279.72821862496 1690.15137094507 286.51221862496 1690.15137094507 L 302.54421862496 1690.15137094507 L 302.54421862496 1687.07937094507 C 302.54421862496 1682.72737094507 301.32821862496 1679.41537094507 298.89621862496 1677.14337094507 C 296.46421862496 1674.87137094507 292.91221862496 1673.73537094507 288.24021862496 1673.73537094507 C 285.04021862496 1673.73537094507 281.96821862496 1674.26337094507 279.02421862496 1675.31937094507 C 276.08021862496 1676.37537094507 273.55221862496 1677.83137094507 271.44021862496 1679.68737094507 L 268.36821862496 1674.59937094507 C 270.92821862496 1672.42337094507 274.00021862496 1670.74337094507 277.58421862496 1669.55937094507 C 281.16821862496 1668.37537094507 284.94421862496 1667.78337094507 288.91221862496 1667.78337094507 C 295.50421862496 1667.78337094507 300.56021862496 1669.43137094507 304.08021862496 1672.72737094507 Z M 296.40021862496 1711.12737094507 C 299.15221862496 1709.36737094507 301.20021862496 1706.82337094507 302.54421862496 1703.49537094507 L 302.54421862496 1695.23937094507 L 286.70421862496 1695.23937094507 C 278.06421862496 1695.23937094507 273.74421862496 1698.24737094507 273.74421862496 1704.26337094507 C 273.74421862496 1707.20737094507 274.86421862496 1709.52737094507 277.10421862496 1711.22337094507 C 279.34421862496 1712.91937094507 282.48021862496 1713.76737094507 286.51221862496 1713.76737094507 C 290.35221862496 1713.76737094507 293.64821862496 1712.88737094507 296.40021862496 1711.12737094507 Z M 351.40821862496 1693.31937094507 L 339.50421862496 1704.26337094507 L 339.50421862496 1718.66337094507 L 332.68821862496 1718.66337094507 L 332.68821862496 1647.43137094507 L 339.50421862496 1647.43137094507 L 339.50421862496 1695.71937094507 L 369.64821862496 1668.16737094507 L 378.09621862496 1668.16737094507 L 356.49621862496 1688.80737094507 L 380.11221862496 1718.66337094507 L 371.76021862496 1718.66337094507 L 351.40821862496 1693.31937094507 Z M 437.13621862496 1695.52737094507 L 394.89621862496 1695.52737094507 C 395.28021862496 1700.77537094507 397.29621862496 1705.01537094507 400.94421862496 1708.24737094507 C 404.59221862496 1711.47937094507 409.20021862496 1713.09537094507 414.76821862496 1713.09537094507 C 417.90421862496 1713.09537094507 420.78421862496 1712.53537094507 423.40821862496 1711.41537094507 C 426.03221862496 1710.29537094507 428.30421862496 1708.64737094507 430.22421862496 1706.47137094507 L 434.06421862496 1710.88737094507 C 431.82421862496 1713.57537094507 429.02421862496 1715.62337094507 425.66421862496 1717.03137094507 C 422.30421862496 1718.43937094507 418.60821862496 1719.14337094507 414.57621862496 1719.14337094507 C 409.39221862496 1719.14337094507 404.80021862496 1718.03937094507 400.80021862496 1715.83137094507 C 396.80021862496 1713.62337094507 393.68021862496 1710.56737094507 391.44021862496 1706.66337094507 C 389.20021862496 1702.75937094507 388.08021862496 1698.34337094507 388.08021862496 1693.41537094507 C 388.08021862496 1688.48737094507 389.15221862496 1684.07137094507 391.29621862496 1680.16737094507 C 393.44021862496 1676.26337094507 396.38421862496 1673.22337094507 400.12821862496 1671.04737094507 C 403.87221862496 1668.87137094507 408.08021862496 1667.78337094507 412.75221862496 1667.78337094507 C 417.42421862496 1667.78337094507 421.61621862496 1668.87137094507 425.32821862496 1671.04737094507 C 429.04021862496 1673.22337094507 431.95221862496 1676.24737094507 434.06421862496 1680.11937094507 C 436.17621862496 1683.99137094507 437.23221862496 1688.42337094507 437.23221862496 1693.41537094507 L 437.13621862496 1695.52737094507 Z M 400.51221862496 1678.29537094507 C 397.21621862496 1681.39937094507 395.34421862496 1685.44737094507 394.89621862496 1690.43937094507 L 430.70421862496 1690.43937094507 C 430.25621862496 1685.44737094507 428.38421862496 1681.39937094507 425.08821862496 1678.29537094507 C 421.79221862496 1675.19137094507 417.68021862496 1673.63937094507 412.75221862496 1673.63937094507 C 407.88821862496 1673.63937094507 403.80821862496 1675.19137094507 400.51221862496 1678.29537094507 Z M 528.33621862496 1668.16737094507 L 503.08821862496 1724.71137094507 C 501.04021862496 1729.44737094507 498.67221862496 1732.80737094507 495.98421862496 1734.79137094507 C 493.29621862496 1736.77537094507 490.06421862496 1737.76737094507 486.28821862496 1737.76737094507 C 483.85621862496 1737.76737094507 481.58421862496 1737.38337094507 479.47221862496 1736.61537094507 C 477.36021862496 1735.84737094507 475.53621862496 1734.69537094507 474.00021862496 1733.15937094507 L 477.16821862496 1728.07137094507 C 479.72821862496 1730.63137094507 482.80021862496 1731.91137094507 486.38421862496 1731.91137094507 C 488.68821862496 1731.91137094507 490.65621862496 1731.27137094507 492.28821862496 1729.99137094507 C 493.92021862496 1728.71137094507 495.44021862496 1726.53537094507 496.84821862496 1723.46337094507 L 499.05621862496 1718.56737094507 L 476.49621862496 1668.16737094507 L 483.60021862496 1668.16737094507 L 502.60821862496 1711.07937094507 L 521.61621862496 1668.16737094507 L 528.33621862496 1668.16737094507 Z M 548.78421862496 1715.83137094507 C 544.88021862496 1713.62337094507 541.80821862496 1710.56737094507 539.56821862496 1706.66337094507 C 537.32821862496 1702.75937094507 536.20821862496 1698.34337094507 536.20821862496 1693.41537094507 C 536.20821862496 1688.48737094507 537.32821862496 1684.07137094507 539.56821862496 1680.16737094507 C 541.80821862496 1676.26337094507 544.88021862496 1673.22337094507 548.78421862496 1671.04737094507 C 552.68821862496 1668.87137094507 557.07221862496 1667.78337094507 561.93621862496 1667.78337094507 C 566.80021862496 1667.78337094507 571.18421862496 1668.87137094507 575.08821862496 1671.04737094507 C 578.99221862496 1673.22337094507 582.04821862496 1676.26337094507 584.25621862496 1680.16737094507 C 586.46421862496 1684.07137094507 587.56821862496 1688.48737094507 587.56821862496 1693.41537094507 C 587.56821862496 1698.34337094507 586.46421862496 1702.75937094507 584.25621862496 1706.66337094507 C 582.04821862496 1710.56737094507 578.99221862496 1713.62337094507 575.08821862496 1715.83137094507 C 571.18421862496 1718.03937094507 566.80021862496 1719.14337094507 561.93621862496 1719.14337094507 C 557.07221862496 1719.14337094507 552.68821862496 1718.03937094507 548.78421862496 1715.83137094507 Z M 571.58421862496 1710.64737094507 C 574.43221862496 1709.01537094507 576.65621862496 1706.69537094507 578.25621862496 1703.68737094507 C 579.85621862496 1700.67937094507 580.65621862496 1697.25537094507 580.65621862496 1693.41537094507 C 580.65621862496 1689.57537094507 579.85621862496 1686.15137094507 578.25621862496 1683.14337094507 C 576.65621862496 1680.13537094507 574.43221862496 1677.81537094507 571.58421862496 1676.18337094507 C 568.73621862496 1674.55137094507 565.52021862496 1673.73537094507 561.93621862496 1673.73537094507 C 558.35221862496 1673.73537094507 555.13621862496 1674.55137094507 552.28821862496 1676.18337094507 C 549.44021862496 1677.81537094507 547.20021862496 1680.13537094507 545.56821862496 1683.14337094507 C 543.93621862496 1686.15137094507 543.12021862496 1689.57537094507 543.12021862496 1693.41537094507 C 543.12021862496 1697.25537094507 543.93621862496 1700.67937094507 545.56821862496 1703.68737094507 C 547.20021862496 1706.69537094507 549.44021862496 1709.01537094507 552.28821862496 1710.64737094507 C 555.13621862496 1712.27937094507 558.35221862496 1713.09537094507 561.93621862496 1713.09537094507 C 565.52021862496 1713.09537094507 568.73621862496 1712.27937094507 571.58421862496 1710.64737094507 Z M 651.79221862496 1668.16737094507 L 651.79221862496 1718.66337094507 L 645.26421862496 1718.66337094507 L 645.26421862496 1709.44737094507 C 643.47221862496 1712.51937094507 641.00821862496 1714.90337094507 637.87221862496 1716.59937094507 C 634.73621862496 1718.29537094507 631.15221862496 1719.14337094507 627.12021862496 1719.14337094507 C 620.52821862496 1719.14337094507 615.32821862496 1717.30337094507 611.52021862496 1713.62337094507 C 607.71221862496 1709.94337094507 605.80821862496 1704.55137094507 605.80821862496 1697.44737094507 L 605.80821862496 1668.16737094507 L 612.62421862496 1668.16737094507 L 612.62421862496 1696.77537094507 C 612.62421862496 1702.08737094507 613.93621862496 1706.11937094507 616.56021862496 1708.87137094507 C 619.18421862496 1711.62337094507 622.92821862496 1712.99937094507 627.79221862496 1712.99937094507 C 633.10421862496 1712.99937094507 637.29621862496 1711.38337094507 640.36821862496 1708.15137094507 C 643.44021862496 1704.91937094507 644.97621862496 1700.42337094507 644.97621862496 1694.66337094507 L 644.97621862496 1668.16737094507 L 651.79221862496 1668.16737094507 Z M 689.37621862496 1670.37537094507 C 692.54421862496 1668.64737094507 696.46421862496 1667.78337094507 701.13621862496 1667.78337094507 L 701.13621862496 1674.40737094507 L 699.50421862496 1674.31137094507 C 694.19221862496 1674.31137094507 690.03221862496 1675.94337094507 687.02421862496 1679.20737094507 C 684.01621862496 1682.47137094507 682.51221862496 1687.04737094507 682.51221862496 1692.93537094507 L 682.51221862496 1718.66337094507 L 675.69621862496 1718.66337094507 L 675.69621862496 1668.16737094507 L 682.22421862496 1668.16737094507 L 682.22421862496 1678.05537094507 C 683.82421862496 1674.66337094507 686.20821862496 1672.10337094507 689.37621862496 1670.37537094507 Z M 775.53621862496 1715.59137094507 C 774.25621862496 1716.74337094507 772.67221862496 1717.62337094507 770.78421862496 1718.23137094507 C 768.89621862496 1718.83937094507 766.92821862496 1719.14337094507 764.88021862496 1719.14337094507 C 760.14421862496 1719.14337094507 756.49621862496 1717.86337094507 753.93621862496 1715.30337094507 C 751.37621862496 1712.74337094507 750.09621862496 1709.12737094507 750.09621862496 1704.45537094507 L 750.09621862496 1673.92737094507 L 741.07221862496 1673.92737094507 L 741.07221862496 1668.16737094507 L 750.09621862496 1668.16737094507 L 750.09621862496 1657.12737094507 L 756.91221862496 1657.12737094507 L 756.91221862496 1668.16737094507 L 772.27221862496 1668.16737094507 L 772.27221862496 1673.92737094507 L 756.91221862496 1673.92737094507 L 756.91221862496 1704.07137094507 C 756.91221862496 1707.07937094507 757.66421862496 1709.36737094507 759.16821862496 1710.93537094507 C 760.67221862496 1712.50337094507 762.83221862496 1713.28737094507 765.64821862496 1713.28737094507 C 767.05621862496 1713.28737094507 768.41621862496 1713.06337094507 769.72821862496 1712.61537094507 C 771.04021862496 1712.16737094507 772.17621862496 1711.52737094507 773.13621862496 1710.69537094507 L 775.53621862496 1715.59137094507 Z M 792.72021862496 1668.16737094507 L 799.53621862496 1668.16737094507 L 799.53621862496 1718.66337094507 L 792.72021862496 1718.66337094507 L 792.72021862496 1668.16737094507 Z M 792.62421862496 1655.68737094507 C 791.66421862496 1654.72737094507 791.18421862496 1653.57537094507 791.18421862496 1652.23137094507 C 791.18421862496 1650.95137094507 791.66421862496 1649.83137094507 792.62421862496 1648.87137094507 C 793.58421862496 1647.91137094507 794.76821862496 1647.43137094507 796.17621862496 1647.43137094507 C 797.58421862496 1647.43137094507 798.76821862496 1647.89537094507 799.72821862496 1648.82337094507 C 800.68821862496 1649.75137094507 801.16821862496 1650.85537094507 801.16821862496 1652.13537094507 C 801.16821862496 1653.54337094507 800.68821862496 1654.72737094507 799.72821862496 1655.68737094507 C 798.76821862496 1656.64737094507 797.58421862496 1657.12737094507 796.17621862496 1657.12737094507 C 794.76821862496 1657.12737094507 793.58421862496 1656.64737094507 792.62421862496 1655.68737094507 Z M 901.24821862496 1673.25537094507 C 904.86421862496 1676.90337094507 906.67221862496 1682.27937094507 906.67221862496 1689.38337094507 L 906.67221862496 1718.66337094507 L 899.85621862496 1718.66337094507 L 899.85621862496 1690.05537094507 C 899.85621862496 1684.80737094507 898.59221862496 1680.80737094507 896.06421862496 1678.05537094507 C 893.53621862496 1675.30337094507 889.96821862496 1673.92737094507 885.36021862496 1673.92737094507 C 880.11221862496 1673.92737094507 875.98421862496 1675.54337094507 872.97621862496 1678.77537094507 C 869.96821862496 1682.00737094507 868.46421862496 1686.47137094507 868.46421862496 1692.16737094507 L 868.46421862496 1718.66337094507 L 861.64821862496 1718.66337094507 L 861.64821862496 1690.05537094507 C 861.64821862496 1684.80737094507 860.38421862496 1680.80737094507 857.85621862496 1678.05537094507 C 855.32821862496 1675.30337094507 851.72821862496 1673.92737094507 847.05621862496 1673.92737094507 C 841.87221862496 1673.92737094507 837.76021862496 1675.54337094507 834.72021862496 1678.77537094507 C 831.68021862496 1682.00737094507 830.16021862496 1686.47137094507 830.16021862496 1692.16737094507 L 830.16021862496 1718.66337094507 L 823.34421862496 1718.66337094507 L 823.34421862496 1668.16737094507 L 829.87221862496 1668.16737094507 L 829.87221862496 1677.38337094507 C 831.66421862496 1674.31137094507 834.16021862496 1671.94337094507 837.36021862496 1670.27937094507 C 840.56021862496 1668.61537094507 844.24021862496 1667.78337094507 848.40021862496 1667.78337094507 C 852.62421862496 1667.78337094507 856.28821862496 1668.67937094507 859.39221862496 1670.47137094507 C 862.49621862496 1672.26337094507 864.81621862496 1674.91937094507 866.35221862496 1678.43937094507 C 868.20821862496 1675.11137094507 870.88021862496 1672.50337094507 874.36821862496 1670.61537094507 C 877.85621862496 1668.72737094507 881.84021862496 1667.78337094507 886.32021862496 1667.78337094507 C 892.65621862496 1667.78337094507 897.63221862496 1669.60737094507 901.24821862496 1673.25537094507 Z M 974.16021862496 1695.52737094507 L 931.92021862496 1695.52737094507 C 932.30421862496 1700.77537094507 934.32021862496 1705.01537094507 937.96821862496 1708.24737094507 C 941.61621862496 1711.47937094507 946.22421862496 1713.09537094507 951.79221862496 1713.09537094507 C 954.92821862496 1713.09537094507 957.80821862496 1712.53537094507 960.43221862496 1711.41537094507 C 963.05621862496 1710.29537094507 965.32821862496 1708.64737094507 967.24821862496 1706.47137094507 L 971.08821862496 1710.88737094507 C 968.84821862496 1713.57537094507 966.04821862496 1715.62337094507 962.68821862496 1717.03137094507 C 959.32821862496 1718.43937094507 955.63221862496 1719.14337094507 951.60021862496 1719.14337094507 C 946.41621862496 1719.14337094507 941.82421862496 1718.03937094507 937.82421862496 1715.83137094507 C 933.82421862496 1713.62337094507 930.70421862496 1710.56737094507 928.46421862496 1706.66337094507 C 926.22421862496 1702.75937094507 925.10421862496 1698.34337094507 925.10421862496 1693.41537094507 C 925.10421862496 1688.48737094507 926.17621862496 1684.07137094507 928.32021862496 1680.16737094507 C 930.46421862496 1676.26337094507 933.40821862496 1673.22337094507 937.15221862496 1671.04737094507 C 940.89621862496 1668.87137094507 945.10421862496 1667.78337094507 949.77621862496 1667.78337094507 C 954.44821862496 1667.78337094507 958.64021862496 1668.87137094507 962.35221862496 1671.04737094507 C 966.06421862496 1673.22337094507 968.97621862496 1676.24737094507 971.08821862496 1680.11937094507 C 973.20021862496 1683.99137094507 974.25621862496 1688.42337094507 974.25621862496 1693.41537094507 L 974.16021862496 1695.52737094507 Z M 937.53621862496 1678.29537094507 C 934.24021862496 1681.39937094507 932.36821862496 1685.44737094507 931.92021862496 1690.43937094507 L 967.72821862496 1690.43937094507 C 967.28021862496 1685.44737094507 965.40821862496 1681.39937094507 962.11221862496 1678.29537094507 C 958.81621862496 1675.19137094507 954.70421862496 1673.63937094507 949.77621862496 1673.63937094507 C 944.91221862496 1673.63937094507 940.83221862496 1675.19137094507 937.53621862496 1678.29537094507 Z"/></svg>